HIERARCHY
ROOT hip
{
	OFFSET 0.000000 0.000000 0.000000 
	CHANNELS 6 Xposition Yposition Zposition Xrotation Zrotation Yrotation
	JOINT abdomen
	{
		OFFSET 0.000000 3.402643 0.000000 
		CHANNELS 3 Xrotation Zrotation Yrotation
		JOINT chest
		{
			OFFSET 0.000000 8.438565 -0.680529 
			CHANNELS 3 Xrotation Zrotation Yrotation
			JOINT neck
			{
				OFFSET 0.000000 10.207942 -0.272212 
				CHANNELS 3 Xrotation Zrotation Yrotation
				JOINT head
				{
					OFFSET 0.000000 3.130431 0.000000 
					CHANNELS 3 Xrotation Zrotation Yrotation
					End Site
					{
						OFFSET 0.000000 3.130435 0.000000 
					}
				}
			}
			JOINT lCollar
			{
				OFFSET 3.470700 6.669187 -0.816635 
				CHANNELS 3 Yrotation Zrotation Xrotation
				JOINT lShldr
				{
					OFFSET 3.198488 0.000000 0.000000 
					CHANNELS 3 Zrotation Yrotation Xrotation
					JOINT lForeArm
					{
						OFFSET 10.139888 0.000000 0.000000 
						CHANNELS 3 Yrotation Zrotation Xrotation
						JOINT lHand
						{
							OFFSET 8.370511 0.000000 0.000000 
							CHANNELS 3 Zrotation Yrotation Xrotation
							End Site
							{
								OFFSET 4.083176 0.000000 0.000000 
							}
						}
					}
				}
			}
			JOINT rCollar
			{
				OFFSET -3.470700 6.669187 -0.816635 
				CHANNELS 3 Yrotation Zrotation Xrotation
				JOINT rShldr
				{
					OFFSET -3.198488 0.000000 0.000000 
					CHANNELS 3 Zrotation Yrotation Xrotation
					JOINT rForeArm
					{
						OFFSET -10.139888 0.000000 0.000000 
						CHANNELS 3 Yrotation Zrotation Xrotation
						JOINT rHand
						{
							OFFSET -8.370511 0.000000 0.000000 
							CHANNELS 3 Zrotation Yrotation Xrotation
							End Site
							{
								OFFSET -4.083176 0.000000 0.000000 
							}
						}
					}
				}
			}
		}
	}
	JOINT lThigh
	{
		OFFSET 5.308129 -1.633274 1.361059 
		CHANNELS 3 Xrotation Zrotation Yrotation
		JOINT lShin
		{
			OFFSET -2.041588 -20.007561 0.000000 
			CHANNELS 3 Xrotation Zrotation Yrotation
			JOINT lFoot
			{
				OFFSET 0.000000 -19.190928 -1.224953 
				CHANNELS 3 Xrotation Yrotation Zrotation
				End Site
				{
					OFFSET 0.000000 -2.449906 4.627600 
				}
			}
		}
	}
	JOINT rThigh
	{
		OFFSET -5.308129 -1.633274 1.361059 
		CHANNELS 3 Xrotation Zrotation Yrotation
		JOINT rShin
		{
			OFFSET 2.041588 -20.007561 0.000000 
			CHANNELS 3 Xrotation Zrotation Yrotation
			JOINT rFoot
			{
				OFFSET 0.000000 -19.190928 -1.224953 
				CHANNELS 3 Xrotation Yrotation Zrotation
				End Site
				{
					OFFSET 0.000000 -2.449906 4.627600 
				}
			}
		}
	}
}
MOTION
Frames: 8
Frame Time: 0.016667
11.424453 28.812845 13.572031 6.916363 -2.791568 -16.426659 62.521969 4.802455 13.392794 4.996377 2.196640 -2.149304 -24.623220 -12.602498 5.292876 -8.761043 -18.804148 26.902227 -9.407818 -12.435259 -0.659633 -0.326321 -28.582146 -15.404924 -60.569126 5.000000 -13.390256 0.542340 -13.065118 28.276173 1.984187 -2.640423 0.139219 40.638950 65.403542 16.318066 110.572746 -5.000000 3.720265 9.659085 -25.138554 24.311821 -30.321201 23.149462 37.908470 43.392601 -2.540024 -2.514583 -19.718306 1.225687 0.010138 -49.325184 0.634392 -11.651660 90.748367 -0.107368 2.691282 -42.892918 -10.844636 -1.632264 
11.713340 28.682632 13.751010 7.034330 -2.816103 -16.671440 62.825172 4.652391 13.556384 4.841625 2.196675 -2.080973 -24.650450 -12.495221 5.224107 -8.763422 -18.770144 26.947851 -9.433857 -12.339335 -0.645188 -0.193846 -28.781536 -15.500846 -60.449211 5.000000 -13.435064 0.503130 -13.028474 28.248085 2.218223 -2.494134 0.131640 41.014805 65.061768 16.787682 110.767288 -5.000000 3.922360 10.098845 -25.122868 23.982700 -30.720562 22.794630 36.790401 44.075871 -2.670020 -2.747107 -21.201641 2.461062 0.713857 -49.752232 0.342018 -11.233831 91.586349 -0.117078 2.503510 -43.107292 -10.993783 -1.097386 
12.013148 28.564917 13.929345 7.152573 -2.830291 -16.974735 63.165684 4.446546 13.696224 4.668741 2.167437 -1.982991 -24.716429 -12.357450 5.158282 -8.740124 -18.717169 26.999483 -9.422968 -12.241816 -0.638078 -0.015284 -29.049559 -15.602968 -60.317013 5.000000 -13.462527 0.455798 -12.960622 28.186342 2.452237 -2.328341 0.123050 41.552639 64.733093 17.408558 110.946823 -5.000000 4.125373 10.579270 -25.083164 23.630850 -31.185991 22.498646 35.728489 44.878788 -2.789085 -2.937343 -22.324215 3.918154 1.200398 -50.214668 -0.010259 -10.821963 92.420677 -0.137117 2.401650 -43.223621 -11.117952 -0.513623 
12.318498 28.450148 14.111323 7.275353 -2.853210 -17.307287 63.477161 4.211453 13.867144 4.515693 2.138202 -1.875621 -24.797169 -12.246888 5.110450 -8.704101 -18.648401 27.042007 -9.383014 -12.163799 -0.634058 0.159856 -29.338346 -15.702524 -60.197311 5.000000 -13.481123 0.439087 -12.914968 28.078745 2.666783 -2.182051 0.115469 42.202969 64.396202 18.115705 111.117226 -5.000000 4.331828 11.101215 -25.032719 23.262079 -31.618565 22.238483 34.765961 45.681103 -2.884852 -3.168890 -23.331987 5.354153 1.693609 -50.657848 -0.321741 -10.411446 93.224648 -0.156148 2.327909 -43.346058 -11.289583 -0.058664 
12.646033 28.347139 14.307862 7.404176 -2.929378 -17.788095 63.691582 3.920097 14.107055 4.471265 2.099220 -1.778034 -24.908756 -12.210029 5.093128 -8.639393 -18.540184 27.105757 -9.236529 -12.163799 -0.634058 0.350163 -29.707634 -15.760097 -60.075680 5.000000 -13.485583 0.504640 -12.883920 27.906124 2.891186 -2.074773 0.109909 43.301926 64.072723 19.207710 111.209869 -5.000000 4.543615 11.745715 -24.929083 22.856056 -31.961731 22.155035 34.117317 46.511776 -3.038343 -3.379484 -24.018244 6.702362 2.047507 -51.218735 -0.634571 -9.978402 94.105759 -0.243985 2.467028 -43.119045 -11.307918 0.347930 
12.973567 28.244137 14.504406 7.524060 -3.005062 -18.258688 63.917198 3.632899 14.359312 4.416766 2.069993 -1.680089 -25.032202 -12.171559 5.087288 -8.561463 -18.433620 27.160471 -9.099699 -12.154047 -0.633555 0.538848 -30.067415 -15.825317 -59.954117 5.000000 -13.485753 0.576467 -12.865634 27.720718 3.115617 -1.977247 0.104855 44.375729 63.738514 20.259092 111.313705 -5.000000 4.756999 12.392624 -24.817810 22.440426 -32.293869 22.048073 33.484509 47.342510 -3.155758 -3.626407 -24.734913 8.056660 2.417888 -51.800285 -0.946641 -9.514715 94.987984 -0.302735 2.606186 -42.860661 -11.400811 0.729109 
13.316881 28.144064 14.723021 7.570783 -3.113467 -18.925877 64.233833 3.222807 14.753936 4.343854 1.943110 -1.553200 -25.135244 -12.123469 5.077933 -8.511670 -18.304197 27.190844 -8.942674 -12.085781 -0.630037 0.609018 -30.499302 -15.895881 -59.840874 5.000000 -13.467367 0.570152 -12.828004 27.543119 3.232484 -1.987550 0.095616 45.756027 63.510193 21.500999 111.335526 -5.000000 4.944118 13.070339 -24.734161 22.042141 -32.371605 22.047070 33.318810 48.145077 -3.243875 -3.871192 -25.304817 9.021827 2.881395 -52.535778 -1.181660 -8.995347 96.025078 -0.430654 2.969536 -42.060928 -11.473103 0.705380 
13.664139 28.044724 14.947155 7.606665 -3.228717 -19.641876 64.587692 2.784058 15.165517 4.260620 1.806447 -1.425980 -25.248938 -12.084998 5.072094 -8.461739 -18.174849 27.221357 -8.775779 -12.007767 -0.626015 0.654759 -30.953188 -15.986138 -59.729691 5.000000 -13.440067 0.536808 -12.790366 27.389902 3.330220 -2.036330 0.098145 47.197426 63.298710 22.776230 111.348061 -5.000000 5.127492 13.734018 -24.657925 21.664581 -32.350666 22.082340 33.284302 48.918873 -3.314754 -4.117115 -25.853151 9.832773 3.320443 -53.304554 -1.366842 -8.457808 97.062599 -0.546627 3.332521 -41.125202 -11.584133 0.534433 
